<svg width="41" height="41" viewBox="0 0 41 41" fill="none" xmlns="http://www.w3.org/2000/svg">
<path d="M20 40.9999C14.6942 41.0047 9.60437 38.8991 5.8526 35.1473C2.10084 31.3955 -0.00476545 26.3057 8.09879e-06 20.9999V20.5999C0.163584 12.5843 5.09561 5.4402 12.5327 2.44601C19.9699 -0.548177 28.4762 1.18568 34.148 6.8519C39.8729 12.5721 41.5863 21.1786 38.4887 28.6552C35.391 36.1317 28.0929 41.0046 20 40.9999ZM20 23.8199L25.18 28.9999L28 26.1799L22.82 20.9999L28 15.8199L25.18 12.9999L20 18.1799L14.82 12.9999L12 15.8199L17.18 20.9999L12 26.1799L14.82 28.9999L20 23.8219V23.8199Z" fill="#B7BCD3"/>
</svg>
