<svg width="150" height="22" viewBox="0 0 150 22" fill="none" xmlns="http://www.w3.org/2000/svg">
<rect x="0.834048" y="0.984695" width="117.758" height="19.4693" rx="3.61505" transform="matrix(1 0 -0.164532 0.986372 30.703 0.464591)" stroke="#9CA1AB" stroke-width="1.9966" stroke-linejoin="round"/>
<mask id="path-2-inside-1_52_12837" fill="white">
<path fill-rule="evenodd" clip-rule="evenodd" d="M22.7239 3.07617C23.7339 1.52366 25.5188 0.451172 27.3798 0.451172H67.0769C69.6589 0.451172 71.4095 2.51565 70.9869 5.06232L69.004 17.0134C68.5814 19.56 66.1458 21.6245 63.5638 21.6245H23.8667C22.0884 21.6245 20.7044 20.6452 20.1533 19.2035H15.2408C14.602 19.2035 14.22 18.6997 14.3876 18.0783C14.5552 17.4569 15.2089 16.9531 15.8477 16.9531H21.0019C21.6315 16.9383 22.2684 16.4404 22.4337 15.8283C22.6016 15.2069 22.2198 14.7031 21.581 14.7031H20.34L20.3401 14.7025H12.0503C11.3583 14.7025 10.9444 14.1568 11.126 13.4836C11.3075 12.8104 12.0157 12.2646 12.7077 12.2646H21.5033C21.523 12.2646 21.5425 12.2651 21.5617 12.266H24.7232C25.3619 12.266 26.0159 11.7622 26.1837 11.1408C26.3516 10.5194 25.9698 10.0156 25.331 10.0156H21.1178L21.1179 10.015H1.98192C1.2899 10.015 0.87608 9.46928 1.05763 8.79608C1.23918 8.12288 1.94734 7.57715 2.63936 7.57715H22.7833C23.3604 7.56355 23.9442 7.10712 24.0958 6.54605C24.2496 5.97642 23.8997 5.51465 23.3141 5.51465H21.8646L21.8647 5.51404H20.5073C19.8153 5.51404 19.4015 4.96831 19.583 4.29511C19.7646 3.62191 20.4727 3.07617 21.1648 3.07617H22.7239ZM13.6858 3.07617C12.994 3.07617 12.2861 3.62173 12.1046 4.29471C11.9231 4.96768 12.3368 5.51324 13.0286 5.51324H16.3242C17.016 5.51324 17.7239 4.96768 17.9054 4.29471C18.0869 3.62173 17.6732 3.07617 16.9814 3.07617H13.6858ZM6.90006 12.2275C6.27225 12.2275 5.62979 12.7226 5.46508 13.3334C5.30038 13.9441 5.6758 14.4392 6.30361 14.4392H6.63047C7.25828 14.4392 7.90074 13.9441 8.06544 13.3334C8.23015 12.7226 7.85473 12.2275 7.22692 12.2275H6.90006ZM8.01529 16.9912C7.38748 16.9912 6.74502 17.4863 6.58032 18.097C6.41561 18.7078 6.79103 19.2029 7.41885 19.2029H11.6462C12.2741 19.2029 12.9165 18.7078 13.0812 18.097C13.2459 17.4863 12.8705 16.9912 12.2427 16.9912H8.01529Z"/>
</mask>
<path fill-rule="evenodd" clip-rule="evenodd" d="M22.7239 3.07617C23.7339 1.52366 25.5188 0.451172 27.3798 0.451172H67.0769C69.6589 0.451172 71.4095 2.51565 70.9869 5.06232L69.004 17.0134C68.5814 19.56 66.1458 21.6245 63.5638 21.6245H23.8667C22.0884 21.6245 20.7044 20.6452 20.1533 19.2035H15.2408C14.602 19.2035 14.22 18.6997 14.3876 18.0783C14.5552 17.4569 15.2089 16.9531 15.8477 16.9531H21.0019C21.6315 16.9383 22.2684 16.4404 22.4337 15.8283C22.6016 15.2069 22.2198 14.7031 21.581 14.7031H20.34L20.3401 14.7025H12.0503C11.3583 14.7025 10.9444 14.1568 11.126 13.4836C11.3075 12.8104 12.0157 12.2646 12.7077 12.2646H21.5033C21.523 12.2646 21.5425 12.2651 21.5617 12.266H24.7232C25.3619 12.266 26.0159 11.7622 26.1837 11.1408C26.3516 10.5194 25.9698 10.0156 25.331 10.0156H21.1178L21.1179 10.015H1.98192C1.2899 10.015 0.87608 9.46928 1.05763 8.79608C1.23918 8.12288 1.94734 7.57715 2.63936 7.57715H22.7833C23.3604 7.56355 23.9442 7.10712 24.0958 6.54605C24.2496 5.97642 23.8997 5.51465 23.3141 5.51465H21.8646L21.8647 5.51404H20.5073C19.8153 5.51404 19.4015 4.96831 19.583 4.29511C19.7646 3.62191 20.4727 3.07617 21.1648 3.07617H22.7239ZM13.6858 3.07617C12.994 3.07617 12.2861 3.62173 12.1046 4.29471C11.9231 4.96768 12.3368 5.51324 13.0286 5.51324H16.3242C17.016 5.51324 17.7239 4.96768 17.9054 4.29471C18.0869 3.62173 17.6732 3.07617 16.9814 3.07617H13.6858ZM6.90006 12.2275C6.27225 12.2275 5.62979 12.7226 5.46508 13.3334C5.30038 13.9441 5.6758 14.4392 6.30361 14.4392H6.63047C7.25828 14.4392 7.90074 13.9441 8.06544 13.3334C8.23015 12.7226 7.85473 12.2275 7.22692 12.2275H6.90006ZM8.01529 16.9912C7.38748 16.9912 6.74502 17.4863 6.58032 18.097C6.41561 18.7078 6.79103 19.2029 7.41885 19.2029H11.6462C12.2741 19.2029 12.9165 18.7078 13.0812 18.097C13.2459 17.4863 12.8705 16.9912 12.2427 16.9912H8.01529Z" fill="#9CA1AB"/>
<path d="M22.7239 3.07617L22.2598 5.04556C23.0847 5.04556 23.9419 4.55812 24.4262 3.81361L22.7239 3.07617ZM70.9869 5.06232L68.9368 5.19567L68.9368 5.19568L70.9869 5.06232ZM69.004 17.0134L71.0541 16.88L71.0541 16.88L69.004 17.0134ZM20.1533 19.2035L22.1263 18.1884C21.8999 17.5962 21.3273 17.2341 20.6173 17.2341L20.1533 19.2035ZM21.0019 16.9531L20.5379 18.9225C20.5543 18.9225 20.5707 18.9223 20.5872 18.9219L21.0019 16.9531ZM22.4337 15.8283L20.4271 15.7623L20.4271 15.7623L22.4337 15.8283ZM20.34 14.7031L18.2901 14.8351C18.1178 15.8692 18.8111 16.6725 19.8759 16.6725L20.34 14.7031ZM20.3401 14.7025L22.39 14.5705C22.5623 13.5364 21.869 12.7331 20.8042 12.7331L20.3401 14.7025ZM11.126 13.4836L13.1329 13.5488L13.1329 13.5488L11.126 13.4836ZM21.5617 12.266L21.0046 14.2333C21.0354 14.2347 21.0664 14.2354 21.0976 14.2354L21.5617 12.266ZM26.1837 11.1408L24.1771 11.0748L24.1771 11.0748L26.1837 11.1408ZM21.1178 10.0156L19.0678 10.1478C18.8956 11.1818 19.5889 11.985 20.6537 11.985L21.1178 10.0156ZM21.1179 10.015L23.1678 9.88282C23.34 8.84881 22.6467 8.04563 21.582 8.04563L21.1179 10.015ZM1.05763 8.79608L3.06449 8.86127L1.05763 8.79608ZM22.7833 7.57715L22.3192 9.54654C22.3356 9.54654 22.3521 9.54634 22.3686 9.54595L22.7833 7.57715ZM24.0958 6.54605L26.1024 6.61208L26.1024 6.61208L24.0958 6.54605ZM21.8646 5.51465L19.8147 5.64675C19.6424 6.6808 20.3357 7.48404 21.4005 7.48404L21.8646 5.51465ZM21.8647 5.51404L23.9146 5.38194C24.0868 4.34789 23.3935 3.54465 22.3288 3.54465L21.8647 5.51404ZM19.583 4.29511L17.5762 4.22992L17.5762 4.22992L19.583 4.29511ZM6.58032 18.097L4.57346 18.0319L4.57346 18.0319L6.58032 18.097ZM13.0812 18.097L11.0744 18.0319L11.0744 18.0319L13.0812 18.097ZM27.8439 -1.51822C25.1415 -1.51822 22.5061 0.0566945 21.0215 2.33873L24.4262 3.81361C24.9616 2.99062 25.8961 2.42056 26.9157 2.42056L27.8439 -1.51822ZM67.541 -1.51822H27.8439L26.9157 2.42056H66.6128L67.541 -1.51822ZM73.037 4.92896C73.6267 1.37491 71.214 -1.51822 67.541 -1.51822L66.6128 2.42056C68.1038 2.42056 69.1922 3.6564 68.9368 5.19567L73.037 4.92896ZM71.0541 16.88L73.037 4.92895L68.9368 5.19568L66.9539 17.1467L71.0541 16.88ZM63.0997 23.5939C66.8858 23.5939 70.4481 20.5322 71.0541 16.88L66.9539 17.1467C66.7148 18.5879 65.4058 19.6551 64.0279 19.6551L63.0997 23.5939ZM23.4026 23.5939H63.0997L64.0279 19.6551H24.3308L23.4026 23.5939ZM18.1802 20.2186C18.9376 22.1996 20.8533 23.5939 23.4026 23.5939L24.3308 19.6551C23.3235 19.6551 22.4713 19.0907 22.1263 18.1884L18.1802 20.2186ZM14.7767 21.1729H19.6892L20.6173 17.2341H15.7049L14.7767 21.1729ZM12.3807 18.0131C11.9131 19.7471 12.9942 21.1729 14.7767 21.1729L15.7049 17.2341C16.2098 17.2341 16.5269 17.6523 16.3945 18.1435L12.3807 18.0131ZM16.3118 14.9837C14.5816 14.9837 12.8346 16.33 12.3807 18.0131L16.3945 18.1435C16.2757 18.5838 15.8362 18.9225 15.3836 18.9225L16.3118 14.9837ZM21.466 14.9837H16.3118L15.3836 18.9225H20.5379L21.466 14.9837ZM20.4271 15.7623C20.5445 15.3276 20.9726 14.9948 21.4167 14.9843L20.5872 18.9219C22.2904 18.8818 23.9923 17.5531 24.4404 15.8943L20.4271 15.7623ZM21.1169 16.6725C20.6117 16.6725 20.2943 16.2538 20.4271 15.7623L24.4404 15.8943C24.9088 14.16 23.8279 12.7337 22.0451 12.7337L21.1169 16.6725ZM19.8759 16.6725H21.1169L22.0451 12.7337H20.8041L19.8759 16.6725ZM18.2902 14.8345L18.2901 14.8351L22.3899 14.5711L22.39 14.5705L18.2902 14.8345ZM11.5862 16.6719H19.876L20.8042 12.7331H12.5144L11.5862 16.6719ZM9.11913 13.4184C8.63753 15.2042 9.75046 16.6719 11.5862 16.6719L12.5144 12.7331C12.9661 12.7331 13.2514 13.1094 13.1329 13.5488L9.11913 13.4184ZM13.1718 10.2953C11.3884 10.2953 9.58699 11.6835 9.11913 13.4184L13.1329 13.5488C13.0281 13.9373 12.643 14.234 12.2436 14.234L13.1718 10.2953ZM21.9674 10.2953H13.1718L12.2436 14.234H21.0392L21.9674 10.2953ZM22.1188 10.2987C22.0686 10.2964 22.0182 10.2953 21.9674 10.2953L21.0392 14.234C21.0278 14.234 21.0163 14.2338 21.0046 14.2333L22.1188 10.2987ZM25.1872 10.2966H22.0258L21.0976 14.2354H24.2591L25.1872 10.2966ZM24.1771 11.0748C24.2959 10.6348 24.735 10.2966 25.1872 10.2966L24.2591 14.2354C25.9889 14.2354 27.7358 12.8896 28.1904 11.2068L24.1771 11.0748ZM24.8669 11.985C24.3617 11.985 24.0443 11.5663 24.1771 11.0748L28.1904 11.2068C28.6588 9.47249 27.5779 8.04624 25.7951 8.04624L24.8669 11.985ZM20.6537 11.985H24.8669L25.7951 8.04624H21.5819L20.6537 11.985ZM19.0679 10.1472L19.0678 10.1478L23.1677 9.88343L23.1678 9.88282L19.0679 10.1472ZM1.51782 11.9844H20.6538L21.582 8.04563H2.44601L1.51782 11.9844ZM-0.949233 8.73089C-1.43083 10.5167 -0.317904 11.9844 1.51782 11.9844L2.44601 8.04563C2.8977 8.04563 3.18299 8.42187 3.06449 8.86127L-0.949233 8.73089ZM3.10345 5.60776C1.32005 5.60776 -0.481363 6.99599 -0.949233 8.73089L3.06449 8.86127C2.95972 9.24978 2.57463 9.54654 2.17527 9.54654L3.10345 5.60776ZM23.2474 5.60776H3.10345L2.17527 9.54654H22.3192L23.2474 5.60776ZM22.0891 6.48003C22.2203 5.99438 22.7015 5.62004 23.198 5.60834L22.3686 9.54595C24.0193 9.50706 25.6681 8.21986 26.1024 6.61208L22.0891 6.48003ZM22.85 7.48404C22.2915 7.48404 21.9424 7.02332 22.0891 6.48003L26.1024 6.61208C26.5569 4.92953 25.5078 3.54526 23.7782 3.54526L22.85 7.48404ZM21.4005 7.48404H22.85L23.7782 3.54526H22.3287L21.4005 7.48404ZM19.8148 5.64614L19.8147 5.64675L23.9145 5.38255L23.9146 5.38194L19.8148 5.64614ZM22.3288 3.54465H20.9714L20.0432 7.48343H21.4006L22.3288 3.54465ZM20.9714 3.54465C21.4231 3.54465 21.7084 3.92089 21.5899 4.36029L17.5762 4.22992C17.0946 6.01572 18.2075 7.48343 20.0432 7.48343L20.9714 3.54465ZM21.5899 4.3603C21.4851 4.7488 21.1 5.04556 20.7007 5.04556L21.6288 1.10678C19.8454 1.10678 18.044 2.49501 17.5762 4.22992L21.5899 4.3603ZM20.7007 5.04556H22.2598L23.188 1.10678H21.6288L20.7007 5.04556ZM14.1115 4.3599C14.0066 4.74862 13.6213 5.04556 13.2217 5.04556L14.1499 1.10678C12.3667 1.10678 10.5656 2.49483 10.0978 4.22951L14.1115 4.3599ZM13.4927 3.54385C13.9446 3.54385 14.23 3.92027 14.1115 4.3599L10.0978 4.22951C9.61621 6.0151 10.729 7.48263 12.5645 7.48263L13.4927 3.54385ZM16.7883 3.54385H13.4927L12.5645 7.48263H15.8601L16.7883 3.54385ZM15.8986 4.22951C16.0034 3.84079 16.3887 3.54385 16.7883 3.54385L15.8601 7.48263C17.6433 7.48263 19.4445 6.09458 19.9123 4.3599L15.8986 4.22951ZM16.5173 5.04556C16.0654 5.04556 15.78 4.66914 15.8986 4.22951L19.9123 4.3599C20.3938 2.57431 19.281 1.10678 17.4455 1.10678L16.5173 5.04556ZM13.2217 5.04556H16.5173L17.4455 1.10678H14.1499L13.2217 5.04556ZM7.47194 13.3986C7.35033 13.8495 6.89954 14.1969 6.43596 14.1969L7.36415 10.2582C5.64496 10.2582 3.90925 11.5957 3.45822 13.2682L7.47194 13.3986ZM6.7677 12.4698C7.2836 12.4698 7.60729 12.8967 7.47194 13.3986L3.45822 13.2682C2.99347 14.9915 4.068 16.4086 5.83952 16.4086L6.7677 12.4698ZM7.09456 12.4698H6.7677L5.83952 16.4086H6.16638L7.09456 12.4698ZM6.05858 13.2682C6.1802 12.8172 6.63099 12.4698 7.09456 12.4698L6.16638 16.4086C7.88557 16.4086 9.62128 15.071 10.0723 13.3986L6.05858 13.2682ZM6.76282 14.1969C6.24692 14.1969 5.92324 13.7701 6.05858 13.2682L10.0723 13.3986C10.5371 11.6752 9.46253 10.2582 7.69101 10.2582L6.76282 14.1969ZM6.43596 14.1969H6.76282L7.69101 10.2582H7.36415L6.43596 14.1969ZM8.58718 18.1622C8.46556 18.6132 8.01477 18.9606 7.5512 18.9606L8.47938 15.0218C6.76019 15.0218 5.02448 16.3594 4.57346 18.0319L8.58718 18.1622ZM7.88294 17.2335C8.39883 17.2335 8.72252 17.6604 8.58718 18.1622L4.57346 18.0319C4.1087 19.7552 5.18324 21.1723 6.95475 21.1723L7.88294 17.2335ZM12.1103 17.2335H7.88294L6.95475 21.1723H11.1822L12.1103 17.2335ZM11.0744 18.0319C11.196 17.5809 11.6468 17.2335 12.1103 17.2335L11.1822 21.1723C12.9013 21.1723 14.6371 19.8347 15.0881 18.1622L11.0744 18.0319ZM11.7786 18.9606C11.2627 18.9606 10.939 18.5337 11.0744 18.0319L15.0881 18.1622C15.5528 16.4389 14.4783 15.0218 12.7068 15.0218L11.7786 18.9606ZM7.5512 18.9606H11.7786L12.7068 15.0218H8.47938L7.5512 18.9606Z" fill="#9CA1AB" mask="url(#path-2-inside-1_52_12837)"/>
<path d="M34.9847 16.8587C33.2255 16.8587 31.8585 16.2585 30.8838 15.0579C29.921 13.8573 29.606 12.4071 29.9388 10.7073C30.2241 9.24525 30.9135 8.03874 32.0071 7.0878C33.1126 6.12497 34.4498 5.64355 36.0189 5.64355C37.7663 5.64355 39.2165 6.36865 40.3695 7.81884L38.8717 9.10261C38.0872 8.05657 37.1006 7.53355 35.9119 7.53355C34.9491 7.53355 34.1111 7.84261 33.3979 8.46072C32.6846 9.06695 32.2329 9.87525 32.0428 10.8856C31.8169 12.0505 32.0071 13.0252 32.6133 13.8098C33.2314 14.5824 34.1051 14.9687 35.2344 14.9687C36.3755 14.9687 37.4453 14.4814 38.4438 13.5067L39.6741 14.6835C38.3784 16.1336 36.8153 16.8587 34.9847 16.8587Z" fill="#23262C"/>
<path d="M47.0715 5.66138C48.6049 5.66138 49.758 6.14874 50.5306 7.12346C51.3151 8.09818 51.5707 9.39383 51.2973 11.0104L50.2988 16.6091H48.2127L48.7298 13.6315H43.2202L42.6853 16.6091H40.5992L41.6868 10.4399C41.9246 8.95402 42.5248 7.78912 43.4877 6.94516C44.4624 6.08931 45.657 5.66138 47.0715 5.66138ZM43.5412 11.8128H49.0507L49.229 10.7965C49.4073 9.79799 49.2825 9.00751 48.8546 8.42506C48.4385 7.83072 47.8145 7.53355 46.9824 7.53355C46.1622 7.53355 45.4609 7.81289 44.8784 8.37157C44.296 8.93025 43.9215 9.67317 43.7551 10.6003L43.5412 11.8128Z" fill="#23262C"/>
<path d="M63.1144 9.06695C63.0075 9.69695 62.7281 10.2735 62.2764 10.7965C61.8247 11.3076 61.2363 11.6702 60.5112 11.8841C62.0922 12.6805 62.6687 14.2555 62.2407 16.6091H60.2081C60.4458 15.2065 60.2616 14.1664 59.6554 13.4888C59.0491 12.7994 57.9972 12.4547 56.4994 12.4547H55.7327L55.0017 16.6091H52.969L54.859 5.91101H59.6375C60.8738 5.91101 61.795 6.21412 62.4012 6.82035C63.0193 7.42657 63.2571 8.17544 63.1144 9.06695ZM61.064 9.13827C61.1353 8.71034 61.0283 8.35968 60.743 8.08629C60.4577 7.80101 60.012 7.65836 59.4057 7.65836H56.5886L56.0358 10.7965H58.746C59.3166 10.7965 59.8218 10.6419 60.2616 10.3329C60.7133 10.0238 60.9807 9.62563 61.064 9.13827Z" fill="#23262C"/>
<path d="M84.0561 8.95997C83.8778 9.91091 83.3131 10.6419 82.3622 11.1531C82.909 11.4265 83.2953 11.8009 83.5212 12.2764C83.7589 12.7519 83.8302 13.2511 83.7351 13.7741C83.5925 14.5705 83.1645 15.2421 82.4513 15.7889C81.75 16.3357 80.7812 16.6091 79.545 16.6091H73.875L75.765 5.91101H80.5792C81.8511 5.91101 82.7842 6.21412 83.3785 6.82035C83.9728 7.42657 84.1987 8.13978 84.0561 8.95997ZM77.4945 7.65836L76.9953 10.4042H79.8838C80.4781 10.4042 80.9655 10.2675 81.3459 9.99412C81.7262 9.72072 81.9521 9.39383 82.0234 9.01346C82.0947 8.63308 81.9818 8.31214 81.6846 8.05063C81.3875 7.77723 80.9298 7.64053 80.3117 7.64053L77.4945 7.65836ZM81.0071 14.5052C81.4231 14.2436 81.6668 13.9108 81.7381 13.5067C81.8094 13.1025 81.6787 12.7697 81.3459 12.5082C81.013 12.2467 80.4781 12.1159 79.7411 12.1159H76.71L76.2108 14.8618L79.4202 14.8796C80.074 14.8915 80.6029 14.7667 81.0071 14.5052Z" fill="#9CA1AB"/>
<path d="M95.4951 9.06695C95.3881 9.69695 95.1088 10.2735 94.6571 10.7965C94.2054 11.3076 93.617 11.6702 92.8919 11.8841C94.4729 12.6805 95.0494 14.2555 94.6214 16.6091H92.5888C92.8265 15.2065 92.6423 14.1664 92.0361 13.4888C91.4298 12.7994 90.3778 12.4547 88.8801 12.4547H88.1134L87.3824 16.6091H85.3497L87.2397 5.91101H92.0182C93.2545 5.91101 94.1757 6.21412 94.7819 6.82035C95.4 7.42657 95.6378 8.17544 95.4951 9.06695ZM93.4446 9.13827C93.516 8.71034 93.409 8.35968 93.1237 8.08629C92.8384 7.80101 92.3927 7.65836 91.7864 7.65836H88.9693L88.4165 10.7965H91.1267C91.6973 10.7965 92.2025 10.6419 92.6423 10.3329C93.094 10.0238 93.3614 9.62563 93.4446 9.13827Z" fill="#9CA1AB"/>
<path d="M102.158 16.8587C100.351 16.8587 98.9602 16.2822 97.9855 15.1292C97.0227 13.9643 96.6958 12.4903 97.0048 10.7073C97.2663 9.23336 97.9617 8.02091 99.091 7.06997C100.232 6.11903 101.546 5.64355 103.031 5.64355C104.862 5.64355 106.265 6.22601 107.239 7.39091C108.214 8.54393 108.541 10.0119 108.22 11.795C107.97 13.2689 107.275 14.4814 106.134 15.4323C104.993 16.3833 103.667 16.8587 102.158 16.8587ZM102.336 14.9687C103.275 14.9687 104.095 14.6537 104.797 14.0237C105.51 13.3937 105.95 12.5914 106.116 11.6167C106.318 10.428 106.116 9.45327 105.51 8.69251C104.904 7.91987 104.03 7.53355 102.889 7.53355C101.962 7.53355 101.136 7.84855 100.41 8.47855C99.6972 9.10855 99.2633 9.91091 99.1088 10.8856C98.9186 12.0743 99.1266 13.055 99.7329 13.8276C100.339 14.5884 101.207 14.9687 102.336 14.9687Z" fill="#9CA1AB"/>
<path d="M116.328 11.1352C118.396 11.8603 119.169 13.685 118.646 16.6091H116.542C116.78 15.1946 116.655 14.0772 116.167 13.257C115.692 12.4369 114.913 12.0268 113.832 12.0268H112.28L111.478 16.6091H109.392L111.282 5.91101H113.368L112.601 10.2081H113.885C114.931 10.2081 115.864 9.80393 116.685 8.99563C117.517 8.18733 118.052 7.15912 118.289 5.91101H120.375C120.15 7.21855 119.686 8.32402 118.985 9.22742C118.283 10.1189 117.398 10.7549 116.328 11.1352Z" fill="#9CA1AB"/>
<path d="M126.995 5.64355C128.766 5.64355 130.085 6.23195 130.953 7.40874C131.821 8.58553 132.106 10.1189 131.809 12.0089H122.822C122.894 12.9004 123.256 13.6196 123.91 14.1664C124.576 14.7132 125.449 14.9866 126.531 14.9866C127.708 14.9866 128.76 14.6537 129.687 13.9881L130.685 15.3967C129.509 16.3595 128.053 16.8409 126.317 16.8409C124.403 16.8409 122.923 16.2703 121.877 15.1292C120.831 13.9762 120.475 12.5022 120.807 10.7073C121.093 9.22148 121.8 8.00902 122.929 7.06997C124.059 6.11903 125.414 5.64355 126.995 5.64355ZM126.888 7.49789C125.972 7.49789 125.176 7.74751 124.498 8.24676C123.821 8.74601 123.339 9.40572 123.054 10.2259H129.83C129.818 9.40572 129.556 8.74601 129.045 8.24676C128.534 7.74751 127.815 7.49789 126.888 7.49789Z" fill="#9CA1AB"/>
<path d="M143.344 9.06695C143.237 9.69695 142.958 10.2735 142.506 10.7965C142.054 11.3076 141.466 11.6702 140.741 11.8841C142.322 12.6805 142.898 14.2555 142.471 16.6091H140.438C140.676 15.2065 140.491 14.1664 139.885 13.4888C139.279 12.7994 138.227 12.4547 136.729 12.4547H135.962L135.231 16.6091H133.199L135.089 5.91101H139.867C141.104 5.91101 142.025 6.21412 142.631 6.82035C143.249 7.42657 143.487 8.17544 143.344 9.06695ZM141.294 9.13827C141.365 8.71034 141.258 8.35968 140.973 8.08629C140.687 7.80101 140.242 7.65836 139.636 7.65836H136.818L136.266 10.7965H138.976C139.546 10.7965 140.052 10.6419 140.491 10.3329C140.943 10.0238 141.211 9.62563 141.294 9.13827Z" fill="#9CA1AB"/>
</svg>
